<svg id="Layer_6" enable-background="new 0 0 64 64" height="512" viewBox="0 0 64 64" width="512" xmlns="http://www.w3.org/2000/svg"><g><path d="m17 30v1h2v-1c0-1.654 1.346-3 3-3h20c1.654 0 3 1.346 3 3v1h2v-1c0-2.757-2.243-5-5-5h-1v-14h-18v14h-1c-2.757 0-5 2.243-5 5zm16-17h6v12h-2v-10h-2v10h-2zm-8 0h6v12h-2v-10h-2v10h-2z"/><path d="m21.263 48.884c.532-4.323 1.689-10.715 1.753-11.062l.149-.822h2.229c2.16 0 4.253-.634 6.051-1.832l.555-.37.555.37c1.798 1.198 3.89 1.832 6.05 1.832h2.229l.148.821c.064.348 1.222 6.739 1.753 11.062 7.947-.716 15.015-5.751 18.245-13.066-.095-1.568-1.388-2.817-2.98-2.817h-52c-1.592 0-2.885 1.249-2.982 2.817 3.23 7.316 10.298 12.351 18.245 13.067z"/><path d="m15 30c0-3.519 2.614-6.432 6-6.92v-10.08h-14v18h8zm2-15h2v2h-2zm0 4h2v2h-2zm-4-4h2v2h-2zm0 4h2v2h-2zm0 4h2v2h-2zm-2 6h-2v-2h2zm0-4h-2v-2h2zm0-4h-2v-2h2zm0-4h-2v-2h2zm2 10h2v2h-2z"/><path d="m49 30v1h8v-14h-14v6.08c3.386.488 6 3.401 6 6.92zm4-11h2v2h-2zm0 4h2v2h-2zm0 4h2v2h-2zm-4-8h2v2h-2zm0 4h2v2h-2zm0 4h2v2h-2zm-4-8h2v2h-2z"/><path d="m41 3.22-18 3.599v2.181h18z"/><path d="m57 12.781-14-3.501v5.72h14z"/><path d="m42.945 50.872c.035.439.055.823.055 1.128 0 2.198-2.907 4.41-8.642 6.573-.75.283-1.543.427-2.358.427s-1.608-.144-2.359-.427c-5.734-2.163-8.641-4.375-8.641-6.573 0-.305.02-.689.055-1.128-7.385-.675-14.067-4.773-18.055-10.915v18.043c0 1.654 1.346 3 3 3h52c1.654 0 3-1.346 3-3v-18.043c-3.988 6.142-10.67 10.24-18.055 10.915zm-29.945 8.128h-8v-2h8zm0-4h-8v-2h8zm45 3h-8v-4h8z"/><path d="m38.605 39c-2.337 0-4.607-.627-6.605-1.818-1.998 1.191-4.269 1.818-6.605 1.818h-.558c-.459 2.596-1.837 10.591-1.837 13 0 .93 2.299 2.798 7.347 4.702 1.049.395 2.259.395 3.306 0 5.048-1.904 7.347-3.772 7.347-4.702 0-2.409-1.378-10.404-1.837-13zm-3.605 6h-2v-.146c0-.47-.384-.854-.854-.854h-.291c-.471 0-.855.384-.855.854 0 .325.181.618.473.764l1.949.975c.974.487 1.578 1.465 1.578 2.553 0 1.275-.845 2.344-2 2.709v2.145h-2v-2.145c-1.155-.366-2-1.435-2-2.709v-1.146h2v1.146c0 .47.384.854.854.854h.291c.471 0 .855-.384.855-.854 0-.325-.181-.618-.473-.764l-1.949-.975c-.974-.487-1.578-1.465-1.578-2.553 0-1.275.845-2.344 2-2.709v-2.145h2v2.145c1.155.366 2 1.435 2 2.709z"/></g></svg>